<svg xmlns="http://www.w3.org/2000/svg" viewBox="0 0 59.71 33.16"><defs><style>.cls-1{fill:#8414ff;}</style></defs><title>logo</title><g id="Capa_2" data-name="Capa 2"><g id="Capa_1-2" data-name="Capa 1"><path class="cls-1" d="M57.88,25.43a6.26,6.26,0,0,1-8.85,0L34.28,10.68a6.26,6.26,0,0,0-8.85,0L10.68,25.43a6.25,6.25,0,0,1-9.17-8.49L16.94,1.51a6.25,6.25,0,0,1,8.49.32,6.25,6.25,0,0,0,8.85,0,6.26,6.26,0,0,1,8.85,0L57.88,16.58A6.26,6.26,0,0,1,57.88,25.43Z"/><circle class="cls-1" cx="29.86" cy="26.91" r="6.26"/></g></g></svg>