<svg width="152" height="151" viewBox="0 0 152 151" fill="none" xmlns="http://www.w3.org/2000/svg">
<rect x="0.25" width="151" height="151" fill="#FCB181"/>
<path d="M63.513 62.301C64.107 62.301 64.58 62.488 64.932 62.862C65.284 63.236 65.416 63.742 65.328 64.38L62.556 83.817C62.49 84.345 62.237 84.796 61.797 85.17C61.379 85.544 60.895 85.731 60.345 85.731C59.685 85.731 59.124 85.467 58.662 84.939C58.2 84.411 58.013 83.817 58.101 83.157L59.685 72.234L52.227 83.355C51.655 84.191 50.962 84.609 50.148 84.609C49.29 84.609 48.707 84.191 48.399 83.355L43.977 72.234L42.327 83.817C42.239 84.345 41.986 84.796 41.568 85.17C41.15 85.544 40.666 85.731 40.116 85.731C39.434 85.731 38.862 85.478 38.4 84.972C37.96 84.444 37.784 83.839 37.872 83.157L40.545 64.38C40.633 63.742 40.886 63.236 41.304 62.862C41.722 62.488 42.217 62.301 42.789 62.301C43.273 62.301 43.735 62.455 44.175 62.763C44.615 63.071 44.934 63.467 45.132 63.951L50.94 78.339L61.071 63.786C61.841 62.796 62.655 62.301 63.513 62.301ZM80.8073 62.169C83.5793 62.169 85.9443 63.115 87.9023 65.007C89.8603 66.899 90.8393 69.308 90.8393 72.234C90.9053 74.522 90.2893 76.733 88.9913 78.867C87.7153 80.979 86.0213 82.673 83.9093 83.949C81.8193 85.203 79.6743 85.797 77.4743 85.731C74.6803 85.731 72.3153 84.796 70.3793 82.926C68.4433 81.056 67.4753 78.647 67.4753 75.699C67.4093 73.389 68.0143 71.178 69.2903 69.066C70.5663 66.932 72.2493 65.238 74.3393 63.984C76.4293 62.708 78.5853 62.103 80.8073 62.169ZM80.2133 66.393C77.9913 66.393 76.0883 67.284 74.5043 69.066C72.9423 70.826 72.1613 72.883 72.1613 75.237C72.1613 77.107 72.7223 78.625 73.8443 79.791C74.9663 80.935 76.3853 81.507 78.1013 81.507C80.3453 81.507 82.2483 80.627 83.8103 78.867C85.3723 77.063 86.1533 74.984 86.1533 72.63C86.1533 70.782 85.5923 69.275 84.4703 68.109C83.3923 66.965 81.9733 66.393 80.2133 66.393ZM98.5211 62.4H103.207C106.287 62.4 108.773 63.247 110.665 64.941C112.579 66.635 113.536 69.022 113.536 72.102C113.536 76.238 112.271 79.505 109.741 81.903C107.211 84.301 103.944 85.5 99.9401 85.5H95.2541C94.5501 85.5 94.0001 85.269 93.6041 84.807C93.2081 84.345 93.0541 83.762 93.1421 83.058L95.6171 64.842C95.7051 64.138 96.0241 63.555 96.5741 63.093C97.1461 62.631 97.7951 62.4 98.5211 62.4ZM97.7951 81.738H100.468C103.24 81.738 105.374 80.88 106.87 79.164C108.344 77.426 109.081 75.127 109.081 72.267C109.081 68.197 106.936 66.162 102.646 66.162H99.9731L97.7951 81.738Z" fill="black"/>
</svg>
