<svg width="152" height="151" viewBox="0 0 152 151" fill="none" xmlns="http://www.w3.org/2000/svg">
<rect x="0.5" width="151" height="151" fill="#ADBEF9"/>
<path d="M63.763 62.301C64.357 62.301 64.83 62.488 65.182 62.862C65.534 63.236 65.666 63.742 65.578 64.38L62.806 83.817C62.74 84.345 62.487 84.796 62.047 85.17C61.629 85.544 61.145 85.731 60.595 85.731C59.935 85.731 59.374 85.467 58.912 84.939C58.45 84.411 58.263 83.817 58.351 83.157L59.935 72.234L52.477 83.355C51.905 84.191 51.212 84.609 50.398 84.609C49.54 84.609 48.957 84.191 48.649 83.355L44.227 72.234L42.577 83.817C42.489 84.345 42.236 84.796 41.818 85.17C41.4 85.544 40.916 85.731 40.366 85.731C39.684 85.731 39.112 85.478 38.65 84.972C38.21 84.444 38.034 83.839 38.122 83.157L40.795 64.38C40.883 63.742 41.136 63.236 41.554 62.862C41.972 62.488 42.467 62.301 43.039 62.301C43.523 62.301 43.985 62.455 44.425 62.763C44.865 63.071 45.184 63.467 45.382 63.951L51.19 78.339L61.321 63.786C62.091 62.796 62.905 62.301 63.763 62.301ZM81.0573 62.169C83.8293 62.169 86.1943 63.115 88.1523 65.007C90.1103 66.899 91.0893 69.308 91.0893 72.234C91.1553 74.522 90.5393 76.733 89.2413 78.867C87.9653 80.979 86.2713 82.673 84.1593 83.949C82.0693 85.203 79.9243 85.797 77.7243 85.731C74.9303 85.731 72.5653 84.796 70.6293 82.926C68.6933 81.056 67.7253 78.647 67.7253 75.699C67.6593 73.389 68.2643 71.178 69.5403 69.066C70.8163 66.932 72.4993 65.238 74.5893 63.984C76.6793 62.708 78.8353 62.103 81.0573 62.169ZM80.4633 66.393C78.2413 66.393 76.3383 67.284 74.7543 69.066C73.1923 70.826 72.4113 72.883 72.4113 75.237C72.4113 77.107 72.9723 78.625 74.0943 79.791C75.2163 80.935 76.6353 81.507 78.3513 81.507C80.5953 81.507 82.4983 80.627 84.0603 78.867C85.6223 77.063 86.4033 74.984 86.4033 72.63C86.4033 70.782 85.8423 69.275 84.7203 68.109C83.6423 66.965 82.2233 66.393 80.4633 66.393ZM98.7711 62.4H103.457C106.537 62.4 109.023 63.247 110.915 64.941C112.829 66.635 113.786 69.022 113.786 72.102C113.786 76.238 112.521 79.505 109.991 81.903C107.461 84.301 104.194 85.5 100.19 85.5H95.5041C94.8001 85.5 94.2501 85.269 93.8541 84.807C93.4581 84.345 93.3041 83.762 93.3921 83.058L95.8671 64.842C95.9551 64.138 96.2741 63.555 96.8241 63.093C97.3961 62.631 98.0451 62.4 98.7711 62.4ZM98.0451 81.738H100.718C103.49 81.738 105.624 80.88 107.12 79.164C108.594 77.426 109.331 75.127 109.331 72.267C109.331 68.197 107.186 66.162 102.896 66.162H100.223L98.0451 81.738Z" fill="black"/>
</svg>
