<svg width="152" height="152" viewBox="0 0 152 152" fill="none" xmlns="http://www.w3.org/2000/svg">
<rect x="0.5" y="0.5" width="151" height="151" fill="#58FFA5"/>
<path d="M63.763 62.801C64.357 62.801 64.83 62.988 65.182 63.362C65.534 63.736 65.666 64.242 65.578 64.88L62.806 84.317C62.74 84.845 62.487 85.296 62.047 85.67C61.629 86.044 61.145 86.231 60.595 86.231C59.935 86.231 59.374 85.967 58.912 85.439C58.45 84.911 58.263 84.317 58.351 83.657L59.935 72.734L52.477 83.855C51.905 84.691 51.212 85.109 50.398 85.109C49.54 85.109 48.957 84.691 48.649 83.855L44.227 72.734L42.577 84.317C42.489 84.845 42.236 85.296 41.818 85.67C41.4 86.044 40.916 86.231 40.366 86.231C39.684 86.231 39.112 85.978 38.65 85.472C38.21 84.944 38.034 84.339 38.122 83.657L40.795 64.88C40.883 64.242 41.136 63.736 41.554 63.362C41.972 62.988 42.467 62.801 43.039 62.801C43.523 62.801 43.985 62.955 44.425 63.263C44.865 63.571 45.184 63.967 45.382 64.451L51.19 78.839L61.321 64.286C62.091 63.296 62.905 62.801 63.763 62.801ZM81.0573 62.669C83.8293 62.669 86.1943 63.615 88.1523 65.507C90.1103 67.399 91.0893 69.808 91.0893 72.734C91.1553 75.022 90.5393 77.233 89.2413 79.367C87.9653 81.479 86.2713 83.173 84.1593 84.449C82.0693 85.703 79.9243 86.297 77.7243 86.231C74.9303 86.231 72.5653 85.296 70.6293 83.426C68.6933 81.556 67.7253 79.147 67.7253 76.199C67.6593 73.889 68.2643 71.678 69.5403 69.566C70.8163 67.432 72.4993 65.738 74.5893 64.484C76.6793 63.208 78.8353 62.603 81.0573 62.669ZM80.4633 66.893C78.2413 66.893 76.3383 67.784 74.7543 69.566C73.1923 71.326 72.4113 73.383 72.4113 75.737C72.4113 77.607 72.9723 79.125 74.0943 80.291C75.2163 81.435 76.6353 82.007 78.3513 82.007C80.5953 82.007 82.4983 81.127 84.0603 79.367C85.6223 77.563 86.4033 75.484 86.4033 73.13C86.4033 71.282 85.8423 69.775 84.7203 68.609C83.6423 67.465 82.2233 66.893 80.4633 66.893ZM98.7711 62.9H103.457C106.537 62.9 109.023 63.747 110.915 65.441C112.829 67.135 113.786 69.522 113.786 72.602C113.786 76.738 112.521 80.005 109.991 82.403C107.461 84.801 104.194 86 100.19 86H95.5041C94.8001 86 94.2501 85.769 93.8541 85.307C93.4581 84.845 93.3041 84.262 93.3921 83.558L95.8671 65.342C95.9551 64.638 96.2741 64.055 96.8241 63.593C97.3961 63.131 98.0451 62.9 98.7711 62.9ZM98.0451 82.238H100.718C103.49 82.238 105.624 81.38 107.12 79.664C108.594 77.926 109.331 75.627 109.331 72.767C109.331 68.697 107.186 66.662 102.896 66.662H100.223L98.0451 82.238Z" fill="#FEFFFC"/>
</svg>
