<svg width="152" height="152" viewBox="0 0 152 152" fill="none" xmlns="http://www.w3.org/2000/svg">
<rect x="0.25" y="0.5" width="151" height="151" fill="#618985"/>
<path d="M63.513 62.801C64.107 62.801 64.58 62.988 64.932 63.362C65.284 63.736 65.416 64.242 65.328 64.88L62.556 84.317C62.49 84.845 62.237 85.296 61.797 85.67C61.379 86.044 60.895 86.231 60.345 86.231C59.685 86.231 59.124 85.967 58.662 85.439C58.2 84.911 58.013 84.317 58.101 83.657L59.685 72.734L52.227 83.855C51.655 84.691 50.962 85.109 50.148 85.109C49.29 85.109 48.707 84.691 48.399 83.855L43.977 72.734L42.327 84.317C42.239 84.845 41.986 85.296 41.568 85.67C41.15 86.044 40.666 86.231 40.116 86.231C39.434 86.231 38.862 85.978 38.4 85.472C37.96 84.944 37.784 84.339 37.872 83.657L40.545 64.88C40.633 64.242 40.886 63.736 41.304 63.362C41.722 62.988 42.217 62.801 42.789 62.801C43.273 62.801 43.735 62.955 44.175 63.263C44.615 63.571 44.934 63.967 45.132 64.451L50.94 78.839L61.071 64.286C61.841 63.296 62.655 62.801 63.513 62.801ZM80.8073 62.669C83.5793 62.669 85.9443 63.615 87.9023 65.507C89.8603 67.399 90.8393 69.808 90.8393 72.734C90.9053 75.022 90.2893 77.233 88.9913 79.367C87.7153 81.479 86.0213 83.173 83.9093 84.449C81.8193 85.703 79.6743 86.297 77.4743 86.231C74.6803 86.231 72.3153 85.296 70.3793 83.426C68.4433 81.556 67.4753 79.147 67.4753 76.199C67.4093 73.889 68.0143 71.678 69.2903 69.566C70.5663 67.432 72.2493 65.738 74.3393 64.484C76.4293 63.208 78.5853 62.603 80.8073 62.669ZM80.2133 66.893C77.9913 66.893 76.0883 67.784 74.5043 69.566C72.9423 71.326 72.1613 73.383 72.1613 75.737C72.1613 77.607 72.7223 79.125 73.8443 80.291C74.9663 81.435 76.3853 82.007 78.1013 82.007C80.3453 82.007 82.2483 81.127 83.8103 79.367C85.3723 77.563 86.1533 75.484 86.1533 73.13C86.1533 71.282 85.5923 69.775 84.4703 68.609C83.3923 67.465 81.9733 66.893 80.2133 66.893ZM98.5211 62.9H103.207C106.287 62.9 108.773 63.747 110.665 65.441C112.579 67.135 113.536 69.522 113.536 72.602C113.536 76.738 112.271 80.005 109.741 82.403C107.211 84.801 103.944 86 99.9401 86H95.2541C94.5501 86 94.0001 85.769 93.6041 85.307C93.2081 84.845 93.0541 84.262 93.1421 83.558L95.6171 65.342C95.7051 64.638 96.0241 64.055 96.5741 63.593C97.1461 63.131 97.7951 62.9 98.5211 62.9ZM97.7951 82.238H100.468C103.24 82.238 105.374 81.38 106.87 79.664C108.344 77.926 109.081 75.627 109.081 72.767C109.081 68.697 106.936 66.662 102.646 66.662H99.9731L97.7951 82.238Z" fill="#FEFFFC"/>
</svg>
