<svg width="151" height="152" viewBox="0 0 151 152" fill="none" xmlns="http://www.w3.org/2000/svg">
<rect y="0.5" width="151" height="151" fill="#8414FF"/>
<path d="M63.263 62.801C63.857 62.801 64.33 62.988 64.682 63.362C65.034 63.736 65.166 64.242 65.078 64.88L62.306 84.317C62.24 84.845 61.987 85.296 61.547 85.67C61.129 86.044 60.645 86.231 60.095 86.231C59.435 86.231 58.874 85.967 58.412 85.439C57.95 84.911 57.763 84.317 57.851 83.657L59.435 72.734L51.977 83.855C51.405 84.691 50.712 85.109 49.898 85.109C49.04 85.109 48.457 84.691 48.149 83.855L43.727 72.734L42.077 84.317C41.989 84.845 41.736 85.296 41.318 85.67C40.9 86.044 40.416 86.231 39.866 86.231C39.184 86.231 38.612 85.978 38.15 85.472C37.71 84.944 37.534 84.339 37.622 83.657L40.295 64.88C40.383 64.242 40.636 63.736 41.054 63.362C41.472 62.988 41.967 62.801 42.539 62.801C43.023 62.801 43.485 62.955 43.925 63.263C44.365 63.571 44.684 63.967 44.882 64.451L50.69 78.839L60.821 64.286C61.591 63.296 62.405 62.801 63.263 62.801ZM80.5573 62.669C83.3293 62.669 85.6943 63.615 87.6523 65.507C89.6103 67.399 90.5893 69.808 90.5893 72.734C90.6553 75.022 90.0393 77.233 88.7413 79.367C87.4653 81.479 85.7713 83.173 83.6593 84.449C81.5693 85.703 79.4243 86.297 77.2243 86.231C74.4303 86.231 72.0653 85.296 70.1293 83.426C68.1933 81.556 67.2253 79.147 67.2253 76.199C67.1593 73.889 67.7643 71.678 69.0403 69.566C70.3163 67.432 71.9993 65.738 74.0893 64.484C76.1793 63.208 78.3353 62.603 80.5573 62.669ZM79.9633 66.893C77.7413 66.893 75.8383 67.784 74.2543 69.566C72.6923 71.326 71.9113 73.383 71.9113 75.737C71.9113 77.607 72.4723 79.125 73.5943 80.291C74.7163 81.435 76.1353 82.007 77.8513 82.007C80.0953 82.007 81.9983 81.127 83.5603 79.367C85.1223 77.563 85.9033 75.484 85.9033 73.13C85.9033 71.282 85.3423 69.775 84.2203 68.609C83.1423 67.465 81.7233 66.893 79.9633 66.893ZM98.2711 62.9H102.957C106.037 62.9 108.523 63.747 110.415 65.441C112.329 67.135 113.286 69.522 113.286 72.602C113.286 76.738 112.021 80.005 109.491 82.403C106.961 84.801 103.694 86 99.6901 86H95.0041C94.3001 86 93.7501 85.769 93.3541 85.307C92.9581 84.845 92.8041 84.262 92.8921 83.558L95.3671 65.342C95.4551 64.638 95.7741 64.055 96.3241 63.593C96.8961 63.131 97.5451 62.9 98.2711 62.9ZM97.5451 82.238H100.218C102.99 82.238 105.124 81.38 106.62 79.664C108.094 77.926 108.831 75.627 108.831 72.767C108.831 68.697 106.686 66.662 102.396 66.662H99.7231L97.5451 82.238Z" fill="#FEFFFC"/>
</svg>
