<svg width="151" height="151" viewBox="0 0 151 151" fill="none" xmlns="http://www.w3.org/2000/svg">
<rect width="151" height="151" fill="#DEEFB7"/>
<path d="M63.263 62.301C63.857 62.301 64.33 62.488 64.682 62.862C65.034 63.236 65.166 63.742 65.078 64.38L62.306 83.817C62.24 84.345 61.987 84.796 61.547 85.17C61.129 85.544 60.645 85.731 60.095 85.731C59.435 85.731 58.874 85.467 58.412 84.939C57.95 84.411 57.763 83.817 57.851 83.157L59.435 72.234L51.977 83.355C51.405 84.191 50.712 84.609 49.898 84.609C49.04 84.609 48.457 84.191 48.149 83.355L43.727 72.234L42.077 83.817C41.989 84.345 41.736 84.796 41.318 85.17C40.9 85.544 40.416 85.731 39.866 85.731C39.184 85.731 38.612 85.478 38.15 84.972C37.71 84.444 37.534 83.839 37.622 83.157L40.295 64.38C40.383 63.742 40.636 63.236 41.054 62.862C41.472 62.488 41.967 62.301 42.539 62.301C43.023 62.301 43.485 62.455 43.925 62.763C44.365 63.071 44.684 63.467 44.882 63.951L50.69 78.339L60.821 63.786C61.591 62.796 62.405 62.301 63.263 62.301ZM80.5573 62.169C83.3293 62.169 85.6943 63.115 87.6523 65.007C89.6103 66.899 90.5893 69.308 90.5893 72.234C90.6553 74.522 90.0393 76.733 88.7413 78.867C87.4653 80.979 85.7713 82.673 83.6593 83.949C81.5693 85.203 79.4243 85.797 77.2243 85.731C74.4303 85.731 72.0653 84.796 70.1293 82.926C68.1933 81.056 67.2253 78.647 67.2253 75.699C67.1593 73.389 67.7643 71.178 69.0403 69.066C70.3163 66.932 71.9993 65.238 74.0893 63.984C76.1793 62.708 78.3353 62.103 80.5573 62.169ZM79.9633 66.393C77.7413 66.393 75.8383 67.284 74.2543 69.066C72.6923 70.826 71.9113 72.883 71.9113 75.237C71.9113 77.107 72.4723 78.625 73.5943 79.791C74.7163 80.935 76.1353 81.507 77.8513 81.507C80.0953 81.507 81.9983 80.627 83.5603 78.867C85.1223 77.063 85.9033 74.984 85.9033 72.63C85.9033 70.782 85.3423 69.275 84.2203 68.109C83.1423 66.965 81.7233 66.393 79.9633 66.393ZM98.2711 62.4H102.957C106.037 62.4 108.523 63.247 110.415 64.941C112.329 66.635 113.286 69.022 113.286 72.102C113.286 76.238 112.021 79.505 109.491 81.903C106.961 84.301 103.694 85.5 99.6901 85.5H95.0041C94.3001 85.5 93.7501 85.269 93.3541 84.807C92.9581 84.345 92.8041 83.762 92.8921 83.058L95.3671 64.842C95.4551 64.138 95.7741 63.555 96.3241 63.093C96.8961 62.631 97.5451 62.4 98.2711 62.4ZM97.5451 81.738H100.218C102.99 81.738 105.124 80.88 106.62 79.164C108.094 77.426 108.831 75.127 108.831 72.267C108.831 68.197 106.686 66.162 102.396 66.162H99.7231L97.5451 81.738Z" fill="black"/>
</svg>
