<svg width="169" height="169" viewBox="0 0 169 169" fill="none" xmlns="http://www.w3.org/2000/svg">
<rect x="0.22998" y="0.0158691" width="168" height="168" fill="url(#paint0_linear)"/>
<path d="M115.532 74.9851C112.832 77.6851 108.432 77.6851 105.632 74.9851L89.2324 58.4851C86.5324 55.7851 82.1324 55.7851 79.3324 58.4851L62.8324 74.9851C60.1324 77.6851 55.7324 77.6851 52.9324 74.9851C50.3324 72.3851 50.2324 68.2851 52.5324 65.4851L69.8324 48.2851C72.5324 45.8851 76.7324 46.0851 79.3324 48.6851C82.0324 51.3851 86.4324 51.3851 89.2324 48.6851C91.9324 45.9851 96.3324 45.9851 99.1324 48.6851L115.632 65.1851C118.232 67.7851 118.232 72.2851 115.532 74.9851Z" fill="white"/>
<path d="M84.2324 83.5851C88.0984 83.5851 91.2324 80.4511 91.2324 76.5851C91.2324 72.7191 88.0984 69.5851 84.2324 69.5851C80.3664 69.5851 77.2324 72.7191 77.2324 76.5851C77.2324 80.4511 80.3664 83.5851 84.2324 83.5851Z" fill="white"/>
<path d="M55.4544 98.1018L58.6408 105.373C58.6982 105.479 58.7269 105.598 58.7269 105.729C58.7269 105.893 58.6654 106.037 58.5423 106.16C58.4193 106.283 58.2676 106.345 58.0872 106.345C57.7755 106.345 57.5581 106.205 57.4351 105.926L56.6724 104.155H52.9324L52.1819 105.926C52.0589 106.205 51.8415 106.345 51.5299 106.345C51.3494 106.345 51.1977 106.283 51.0747 106.16C50.9516 106.037 50.8901 105.893 50.8901 105.729C50.8901 105.598 50.9188 105.479 50.9763 105.373L54.1626 98.1018C54.2939 97.7737 54.5071 97.6097 54.8024 97.6097C55.1058 97.6097 55.3232 97.7737 55.4544 98.1018ZM54.8024 99.7626L53.3876 103.097H56.2295L54.8024 99.7626Z" fill="white"/>
<path d="M66.2072 97.6343C66.3959 97.6343 66.5558 97.704 66.687 97.8434C66.8265 97.9747 66.8962 98.1346 66.8962 98.3232V105.705C66.8962 105.902 66.8347 106.057 66.7116 106.172C66.5968 106.287 66.4492 106.345 66.2688 106.345C65.9899 106.345 65.7643 106.213 65.5921 105.951L61.2493 100.083V105.656C61.2493 105.844 61.1837 106.008 61.0525 106.148C60.9212 106.279 60.7654 106.345 60.585 106.345C60.3963 106.345 60.2323 106.279 60.0929 106.148C59.9616 106.008 59.896 105.844 59.896 105.656V98.274C59.896 98.0772 59.9534 97.9214 60.0683 97.8065C60.1913 97.6917 60.343 97.6343 60.5234 97.6343C60.8023 97.6343 61.0279 97.7655 61.2001 98.028L65.5429 103.896V98.3232C65.5429 98.1346 65.6085 97.9747 65.7397 97.8434C65.871 97.704 66.0268 97.6343 66.2072 97.6343Z" fill="white"/>
<path d="M72.5487 97.5851C73.6805 97.5851 74.677 98.0034 75.5382 98.8399C76.4076 99.6765 76.8423 100.722 76.8423 101.977C76.8423 103.232 76.4076 104.278 75.5382 105.114C74.677 105.951 73.6805 106.369 72.5487 106.369C71.4086 106.369 70.408 105.951 69.5468 105.114C68.6856 104.278 68.255 103.232 68.255 101.977C68.255 100.722 68.6856 99.6765 69.5468 98.8399C70.408 98.0034 71.4086 97.5851 72.5487 97.5851ZM74.5909 99.7257C74.025 99.1434 73.3442 98.8522 72.5487 98.8522C71.7613 98.8522 71.0764 99.1434 70.4941 99.7257C69.9282 100.308 69.6452 101.059 69.6452 101.977C69.6452 102.896 69.9282 103.646 70.4941 104.228C71.0764 104.811 71.7613 105.102 72.5487 105.102C73.3442 105.102 74.025 104.811 74.5909 104.228C75.165 103.654 75.4521 102.904 75.4521 101.977C75.4521 101.05 75.165 100.3 74.5909 99.7257Z" fill="white"/>
<path d="M84.5049 97.6343C84.6936 97.6343 84.8535 97.704 84.9847 97.8434C85.1242 97.9747 85.1939 98.1346 85.1939 98.3232V105.705C85.1939 105.902 85.1324 106.057 85.0093 106.172C84.8945 106.287 84.7469 106.345 84.5665 106.345C84.2876 106.345 84.062 106.213 83.8898 105.951L79.547 100.083V105.656C79.547 105.844 79.4814 106.008 79.3502 106.148C79.2189 106.279 79.0631 106.345 78.8827 106.345C78.694 106.345 78.53 106.279 78.3906 106.148C78.2593 106.008 78.1937 105.844 78.1937 105.656V98.274C78.1937 98.0772 78.2511 97.9214 78.3659 97.8065C78.489 97.6917 78.6407 97.6343 78.8211 97.6343C79.1 97.6343 79.3255 97.7655 79.4978 98.028L83.8406 103.896V98.3232C83.8406 98.1346 83.9062 97.9747 84.0374 97.8434C84.1687 97.704 84.3245 97.6343 84.5049 97.6343Z" fill="white"/>
<path d="M88.0044 98.3232V105.102H91.4492C91.605 105.102 91.7403 105.159 91.8552 105.274C91.9782 105.389 92.0397 105.528 92.0397 105.692C92.0397 105.857 91.9782 105.996 91.8552 106.111C91.7403 106.226 91.605 106.283 91.4492 106.283H87.4016C87.1966 106.283 87.0243 106.213 86.8849 106.074C86.7455 105.934 86.6758 105.762 86.6758 105.557V98.3232C86.6758 98.1346 86.7414 97.9747 86.8726 97.8434C87.0038 97.704 87.1638 97.6343 87.3524 97.6343C87.5328 97.6343 87.6846 97.704 87.8076 97.8434C87.9388 97.9747 88.0044 98.1346 88.0044 98.3232Z" fill="white"/>
<path d="M97.4682 98.1018L100.655 105.373C100.712 105.479 100.741 105.598 100.741 105.729C100.741 105.893 100.679 106.037 100.556 106.16C100.433 106.283 100.281 106.345 100.101 106.345C99.7893 106.345 99.572 106.205 99.4489 105.926L98.6862 104.155H94.9462L94.1957 105.926C94.0727 106.205 93.8554 106.345 93.5437 106.345C93.3633 106.345 93.2115 106.283 93.0885 106.16C92.9655 106.037 92.904 105.893 92.904 105.729C92.904 105.598 92.9327 105.479 92.9901 105.373L96.1764 98.1018C96.3077 97.7737 96.5209 97.6097 96.8162 97.6097C97.1196 97.6097 97.337 97.7737 97.4682 98.1018ZM96.8162 99.7626L95.4014 103.097H98.2433L96.8162 99.7626Z" fill="white"/>
<path d="M108.221 97.6343C108.41 97.6343 108.57 97.704 108.701 97.8434C108.84 97.9747 108.91 98.1346 108.91 98.3232V105.705C108.91 105.902 108.848 106.057 108.725 106.172C108.611 106.287 108.463 106.345 108.283 106.345C108.004 106.345 107.778 106.213 107.606 105.951L103.263 100.083V105.656C103.263 105.844 103.198 106.008 103.066 106.148C102.935 106.279 102.779 106.345 102.599 106.345C102.41 106.345 102.246 106.279 102.107 106.148C101.975 106.008 101.91 105.844 101.91 105.656V98.274C101.91 98.0772 101.967 97.9214 102.082 97.8065C102.205 97.6917 102.357 97.6343 102.537 97.6343C102.816 97.6343 103.042 97.7655 103.214 98.028L107.557 103.896V98.3232C107.557 98.1346 107.622 97.9747 107.754 97.8434C107.885 97.704 108.041 97.6343 108.221 97.6343Z" fill="white"/>
<path d="M111.118 97.6712H112.951C114.247 97.6712 115.292 98.0526 116.088 98.8153C116.9 99.5617 117.306 100.607 117.306 101.953C117.306 103.314 116.9 104.376 116.088 105.139C115.292 105.902 114.247 106.283 112.951 106.283H111.118C110.913 106.283 110.74 106.213 110.601 106.074C110.462 105.934 110.392 105.762 110.392 105.557V98.3971C110.392 98.192 110.462 98.0198 110.601 97.8803C110.74 97.7409 110.913 97.6712 111.118 97.6712ZM111.721 105.151H112.951C113.935 105.151 114.685 104.885 115.202 104.352C115.719 103.81 115.977 103.011 115.977 101.953C115.977 100.911 115.715 100.128 115.19 99.6027C114.673 99.0696 113.927 98.803 112.951 98.803H111.721V105.151Z" fill="white"/>
<path d="M27.34 115.128V117.968H30.95C31.0433 117.968 31.1066 118.008 31.14 118.088C31.18 118.162 31.18 118.238 31.14 118.318C31.1066 118.392 31.0433 118.428 30.95 118.428H27.1C27.02 118.428 26.9533 118.405 26.9 118.358C26.8533 118.305 26.83 118.238 26.83 118.158V111.698C26.83 111.618 26.8533 111.555 26.9 111.508C26.9533 111.455 27.02 111.428 27.1 111.428H30.85C30.9433 111.428 31.0066 111.468 31.04 111.548C31.08 111.622 31.08 111.698 31.04 111.778C31.0066 111.852 30.9433 111.888 30.85 111.888H27.34V114.688H29.91C30.05 114.688 30.12 114.762 30.12 114.908C30.12 115.055 30.05 115.128 29.91 115.128H27.34ZM34.1927 115.798L35.9127 118.118C35.9394 118.152 35.9527 118.195 35.9527 118.248C35.9527 118.315 35.9294 118.372 35.8827 118.418C35.8427 118.458 35.7927 118.478 35.7327 118.478C35.6527 118.478 35.5927 118.448 35.5527 118.388L33.9227 116.148L32.2827 118.388C32.2427 118.448 32.1827 118.478 32.1027 118.478C32.0427 118.478 31.9894 118.458 31.9427 118.418C31.9027 118.372 31.8827 118.315 31.8827 118.248C31.8827 118.195 31.896 118.152 31.9227 118.118L33.6427 115.798L31.9827 113.548C31.9494 113.515 31.9327 113.472 31.9327 113.418C31.9327 113.358 31.9527 113.308 31.9927 113.268C32.0394 113.222 32.096 113.198 32.1627 113.198C32.236 113.198 32.296 113.228 32.3427 113.288L33.9227 115.438L35.4927 113.288C35.546 113.228 35.606 113.198 35.6727 113.198C35.7394 113.198 35.7927 113.222 35.8327 113.268C35.8794 113.308 35.9027 113.358 35.9027 113.418C35.9027 113.472 35.886 113.515 35.8527 113.548L34.1927 115.798ZM39.3783 113.168C40.005 113.168 40.575 113.405 41.0883 113.878C41.6083 114.352 41.8683 115.002 41.8683 115.828C41.8683 116.255 41.7917 116.645 41.6383 116.998C41.485 117.345 41.285 117.625 41.0383 117.838C40.7917 118.052 40.525 118.215 40.2383 118.328C39.9517 118.442 39.665 118.498 39.3783 118.498C38.9583 118.498 38.5717 118.388 38.2183 118.168C37.865 117.948 37.5917 117.638 37.3983 117.238V120.108C37.3983 120.208 37.355 120.278 37.2683 120.318C37.1883 120.365 37.105 120.365 37.0183 120.318C36.9383 120.278 36.8983 120.208 36.8983 120.108V113.458C36.8983 113.385 36.9217 113.325 36.9683 113.278C37.015 113.225 37.075 113.198 37.1483 113.198C37.215 113.198 37.2717 113.225 37.3183 113.278C37.3717 113.325 37.3983 113.385 37.3983 113.458V114.358C37.5783 113.978 37.845 113.685 38.1983 113.478C38.5583 113.272 38.9517 113.168 39.3783 113.168ZM40.7383 114.198C40.3317 113.812 39.8683 113.618 39.3483 113.618C38.8283 113.618 38.3683 113.808 37.9683 114.188C37.5683 114.568 37.3683 115.115 37.3683 115.828C37.3683 116.522 37.5683 117.065 37.9683 117.458C38.3817 117.852 38.8417 118.048 39.3483 118.048C39.8683 118.048 40.3317 117.855 40.7383 117.468C41.1583 117.082 41.3683 116.535 41.3683 115.828C41.3683 115.135 41.1583 114.592 40.7383 114.198ZM45.0798 113.178C45.3065 113.178 45.4198 113.262 45.4198 113.428C45.4198 113.595 45.3065 113.678 45.0798 113.678C44.5798 113.678 44.1565 113.842 43.8098 114.168C43.4498 114.508 43.2365 114.882 43.1698 115.288V118.218C43.1698 118.325 43.1265 118.398 43.0398 118.438C42.9598 118.485 42.8765 118.485 42.7898 118.438C42.7098 118.398 42.6698 118.325 42.6698 118.218V113.458C42.6698 113.352 42.7098 113.278 42.7898 113.238C42.8765 113.192 42.9598 113.192 43.0398 113.238C43.1265 113.278 43.1698 113.352 43.1698 113.458V114.468C43.2165 114.242 43.4198 113.968 43.7798 113.648C44.1332 113.335 44.5665 113.178 45.0798 113.178ZM47.9195 113.168C48.5528 113.168 49.1228 113.402 49.6295 113.868C50.1495 114.328 50.4095 114.948 50.4095 115.728C50.4095 115.935 50.2995 116.038 50.0795 116.038H45.9095C45.9362 116.672 46.1595 117.165 46.5795 117.518C46.9862 117.865 47.4562 118.038 47.9895 118.038C48.5628 118.038 49.0262 117.875 49.3795 117.548C49.4862 117.448 49.5695 117.398 49.6295 117.398C49.7695 117.398 49.8395 117.468 49.8395 117.608C49.8395 117.682 49.7895 117.768 49.6895 117.868C49.2628 118.275 48.6962 118.478 47.9895 118.478C47.3028 118.478 46.6995 118.248 46.1795 117.788C45.6595 117.322 45.3995 116.668 45.3995 115.828C45.3995 115.268 45.5328 114.782 45.7995 114.368C46.0662 113.948 46.3862 113.645 46.7595 113.458C47.1328 113.265 47.5195 113.168 47.9195 113.168ZM45.9095 115.598H49.9295C49.8895 114.972 49.6662 114.485 49.2595 114.138C48.8528 113.792 48.4062 113.618 47.9195 113.618C47.4328 113.618 46.9862 113.792 46.5795 114.138C46.1728 114.485 45.9495 114.972 45.9095 115.598ZM52.8447 113.168C53.6247 113.168 54.1814 113.458 54.5147 114.038C54.5614 114.125 54.5847 114.202 54.5847 114.268C54.5847 114.328 54.5614 114.378 54.5147 114.418C54.4747 114.458 54.4214 114.478 54.3547 114.478C54.2681 114.478 54.1747 114.398 54.0747 114.238C53.8147 113.825 53.3947 113.618 52.8147 113.618C52.4414 113.618 52.1481 113.705 51.9347 113.878C51.7214 114.045 51.6147 114.268 51.6147 114.548C51.6147 115.002 51.9481 115.312 52.6147 115.478L53.2647 115.638C53.7914 115.765 54.1781 115.938 54.4247 116.158C54.6714 116.372 54.7947 116.655 54.7947 117.008C54.7947 117.462 54.6047 117.822 54.2247 118.088C53.8447 118.348 53.3847 118.478 52.8447 118.478C52.4181 118.478 52.0347 118.392 51.6947 118.218C51.3614 118.038 51.1414 117.808 51.0347 117.528C50.9881 117.408 50.9647 117.322 50.9647 117.268C50.9647 117.188 50.9847 117.125 51.0247 117.078C51.0714 117.032 51.1247 117.008 51.1847 117.008C51.2981 117.008 51.3781 117.082 51.4247 117.228C51.5181 117.482 51.6881 117.678 51.9347 117.818C52.1881 117.952 52.4914 118.018 52.8447 118.018C53.2647 118.018 53.6114 117.932 53.8847 117.758C54.1647 117.585 54.3047 117.345 54.3047 117.038C54.3047 116.792 54.2214 116.598 54.0547 116.458C53.8947 116.318 53.6447 116.205 53.3047 116.118L52.4447 115.898C51.5647 115.665 51.1247 115.218 51.1247 114.558C51.1247 114.158 51.2847 113.828 51.6047 113.568C51.9181 113.302 52.3314 113.168 52.8447 113.168ZM57.8407 113.168C58.2674 113.168 58.6574 113.272 59.0107 113.478C59.3707 113.685 59.6407 113.978 59.8207 114.358V113.458C59.8207 113.385 59.844 113.325 59.8907 113.278C59.944 113.225 60.004 113.198 60.0707 113.198C60.144 113.198 60.204 113.225 60.2507 113.278C60.2974 113.325 60.3207 113.385 60.3207 113.458V118.228C60.3207 118.335 60.2774 118.408 60.1907 118.448C60.1107 118.488 60.0274 118.488 59.9407 118.448C59.8607 118.408 59.8207 118.335 59.8207 118.228V117.238C59.6274 117.638 59.354 117.948 59.0007 118.168C58.6474 118.388 58.2607 118.498 57.8407 118.498C57.554 118.498 57.2674 118.442 56.9807 118.328C56.694 118.215 56.4274 118.052 56.1807 117.838C55.934 117.625 55.734 117.345 55.5807 116.998C55.4274 116.645 55.3507 116.255 55.3507 115.828C55.3507 115.002 55.6074 114.352 56.1207 113.878C56.6474 113.405 57.2207 113.168 57.8407 113.168ZM59.8507 115.828C59.8507 115.115 59.6507 114.568 59.2507 114.188C58.8507 113.808 58.3907 113.618 57.8707 113.618C57.3507 113.618 56.884 113.812 56.4707 114.198C56.0574 114.592 55.8507 115.135 55.8507 115.828C55.8507 116.528 56.0574 117.075 56.4707 117.468C56.884 117.855 57.3507 118.048 57.8707 118.048C58.3774 118.048 58.834 117.852 59.2407 117.458C59.6474 117.072 59.8507 116.528 59.8507 115.828ZM63.2075 117.958C63.2875 117.932 63.3575 117.938 63.4175 117.978C63.4775 118.012 63.5075 118.062 63.5075 118.128C63.5075 118.362 63.2375 118.478 62.6975 118.478C62.1575 118.478 61.8875 118.208 61.8875 117.668V113.678H61.3375C61.1908 113.678 61.1175 113.602 61.1175 113.448C61.1175 113.302 61.1908 113.228 61.3375 113.228H61.8875V112.248C61.8875 112.148 61.9275 112.078 62.0075 112.038C62.0941 111.992 62.1775 111.992 62.2575 112.038C62.3441 112.078 62.3875 112.148 62.3875 112.248V113.228H63.2775C63.3375 113.228 63.3908 113.252 63.4375 113.298C63.4841 113.338 63.5075 113.388 63.5075 113.448C63.5075 113.602 63.4308 113.678 63.2775 113.678H62.3875V117.598C62.3875 117.892 62.5275 118.038 62.8075 118.038C62.9141 118.038 63.0475 118.012 63.2075 117.958ZM66.5328 113.168C67.1661 113.168 67.7361 113.402 68.2428 113.868C68.7628 114.328 69.0228 114.948 69.0228 115.728C69.0228 115.935 68.9128 116.038 68.6928 116.038H64.5228C64.5495 116.672 64.7728 117.165 65.1928 117.518C65.5995 117.865 66.0695 118.038 66.6028 118.038C67.1761 118.038 67.6395 117.875 67.9928 117.548C68.0995 117.448 68.1828 117.398 68.2428 117.398C68.3828 117.398 68.4528 117.468 68.4528 117.608C68.4528 117.682 68.4028 117.768 68.3028 117.868C67.8761 118.275 67.3095 118.478 66.6028 118.478C65.9161 118.478 65.3128 118.248 64.7928 117.788C64.2728 117.322 64.0128 116.668 64.0128 115.828C64.0128 115.268 64.1461 114.782 64.4128 114.368C64.6795 113.948 64.9995 113.645 65.3728 113.458C65.7461 113.265 66.1328 113.168 66.5328 113.168ZM64.5228 115.598H68.5428C68.5028 114.972 68.2795 114.485 67.8728 114.138C67.4661 113.792 67.0195 113.618 66.5328 113.618C66.0461 113.618 65.5995 113.792 65.1928 114.138C64.7861 114.485 64.5628 114.972 64.5228 115.598ZM74.8133 113.168C75.24 113.168 75.63 113.272 75.9833 113.478C76.3433 113.685 76.6133 113.978 76.7933 114.358V113.458C76.7933 113.385 76.8167 113.325 76.8633 113.278C76.9167 113.225 76.9767 113.198 77.0433 113.198C77.1167 113.198 77.1767 113.225 77.2233 113.278C77.27 113.325 77.2933 113.385 77.2933 113.458V118.228C77.2933 118.335 77.25 118.408 77.1633 118.448C77.0833 118.488 77 118.488 76.9133 118.448C76.8333 118.408 76.7933 118.335 76.7933 118.228V117.238C76.6 117.638 76.3267 117.948 75.9733 118.168C75.62 118.388 75.2333 118.498 74.8133 118.498C74.5267 118.498 74.24 118.442 73.9533 118.328C73.6667 118.215 73.4 118.052 73.1533 117.838C72.9067 117.625 72.7067 117.345 72.5533 116.998C72.4 116.645 72.3233 116.255 72.3233 115.828C72.3233 115.002 72.58 114.352 73.0933 113.878C73.62 113.405 74.1933 113.168 74.8133 113.168ZM76.8233 115.828C76.8233 115.115 76.6233 114.568 76.2233 114.188C75.8233 113.808 75.3633 113.618 74.8433 113.618C74.3233 113.618 73.8567 113.812 73.4433 114.198C73.03 114.592 72.8233 115.135 72.8233 115.828C72.8233 116.528 73.03 117.075 73.4433 117.468C73.8567 117.855 74.3233 118.048 74.8433 118.048C75.35 118.048 75.8067 117.852 76.2133 117.458C76.62 117.072 76.8233 116.528 76.8233 115.828ZM80.9601 113.178C81.4935 113.178 81.9568 113.348 82.3501 113.688C82.7501 114.028 82.9501 114.568 82.9501 115.308V118.218C82.9501 118.325 82.9068 118.398 82.8201 118.438C82.7401 118.478 82.6568 118.478 82.5701 118.438C82.4901 118.398 82.4501 118.325 82.4501 118.218V115.308C82.4501 114.755 82.3068 114.338 82.0201 114.058C81.7335 113.778 81.3568 113.638 80.8901 113.638C80.3835 113.638 79.9568 113.805 79.6101 114.138C79.2701 114.472 79.0635 114.855 78.9901 115.288V118.218C78.9901 118.325 78.9468 118.398 78.8601 118.438C78.7801 118.478 78.6968 118.478 78.6101 118.438C78.5301 118.398 78.4901 118.325 78.4901 118.218V113.458C78.4901 113.352 78.5301 113.278 78.6101 113.238C78.6968 113.192 78.7801 113.192 78.8601 113.238C78.9468 113.278 78.9901 113.352 78.9901 113.458V114.468C79.0368 114.235 79.2401 113.958 79.6001 113.638C79.9535 113.332 80.4068 113.178 80.9601 113.178ZM88.2742 113.878C88.8075 114.352 89.0742 115.002 89.0742 115.828C89.0742 116.655 88.8075 117.308 88.2742 117.788C87.7475 118.262 87.1609 118.498 86.5142 118.498C85.8675 118.498 85.2775 118.262 84.7442 117.788C84.2175 117.308 83.9542 116.655 83.9542 115.828C83.9542 114.995 84.2175 114.345 84.7442 113.878C85.2775 113.405 85.8675 113.168 86.5142 113.168C87.1542 113.168 87.7409 113.405 88.2742 113.878ZM88.5742 115.828C88.5742 115.128 88.3609 114.585 87.9342 114.198C87.5075 113.812 87.0342 113.618 86.5142 113.618C85.9942 113.618 85.5209 113.812 85.0942 114.198C84.6675 114.585 84.4542 115.128 84.4542 115.828C84.4542 116.535 84.6675 117.082 85.0942 117.468C85.5209 117.855 85.9942 118.048 86.5142 118.048C87.0342 118.048 87.5075 117.855 87.9342 117.468C88.3609 117.082 88.5742 116.535 88.5742 115.828ZM92.3469 113.178C92.8802 113.178 93.3435 113.348 93.7369 113.688C94.1369 114.028 94.3369 114.568 94.3369 115.308V118.218C94.3369 118.325 94.2935 118.398 94.2069 118.438C94.1269 118.478 94.0435 118.478 93.9569 118.438C93.8769 118.398 93.8369 118.325 93.8369 118.218V115.308C93.8369 114.755 93.6935 114.338 93.4069 114.058C93.1202 113.778 92.7435 113.638 92.2769 113.638C91.7702 113.638 91.3435 113.805 90.9969 114.138C90.6569 114.472 90.4502 114.855 90.3769 115.288V118.218C90.3769 118.325 90.3335 118.398 90.2469 118.438C90.1669 118.478 90.0835 118.478 89.9969 118.438C89.9169 118.398 89.8769 118.325 89.8769 118.218V113.458C89.8769 113.352 89.9169 113.278 89.9969 113.238C90.0835 113.192 90.1669 113.192 90.2469 113.238C90.3335 113.278 90.3769 113.352 90.3769 113.458V114.468C90.4235 114.235 90.6269 113.958 90.9869 113.638C91.3402 113.332 91.7935 113.178 92.3469 113.178ZM95.5409 111.448C95.5409 111.342 95.5843 111.268 95.6709 111.228C95.7576 111.188 95.8443 111.188 95.9309 111.228C96.0176 111.268 96.0609 111.342 96.0609 111.448C96.0609 111.562 96.0176 111.642 95.9309 111.688C95.8443 111.728 95.7576 111.728 95.6709 111.688C95.5843 111.642 95.5409 111.562 95.5409 111.448ZM96.0509 113.458V118.228C96.0509 118.335 96.0076 118.408 95.9209 118.448C95.8409 118.495 95.7576 118.495 95.6709 118.448C95.5909 118.408 95.5509 118.335 95.5509 118.228V113.458C95.5509 113.352 95.5909 113.278 95.6709 113.238C95.7576 113.192 95.8409 113.192 95.9209 113.238C96.0076 113.278 96.0509 113.352 96.0509 113.458ZM103.69 113.178C104.223 113.178 104.686 113.348 105.08 113.688C105.48 114.028 105.68 114.568 105.68 115.308V118.218C105.68 118.325 105.636 118.398 105.55 118.438C105.47 118.478 105.386 118.478 105.3 118.438C105.22 118.398 105.18 118.325 105.18 118.218V115.308C105.18 114.755 105.036 114.338 104.75 114.058C104.463 113.778 104.086 113.638 103.62 113.638C103.113 113.638 102.686 113.805 102.34 114.138C102 114.472 101.793 114.855 101.72 115.288V115.308V118.218C101.72 118.325 101.676 118.398 101.59 118.438C101.51 118.478 101.426 118.478 101.34 118.438C101.26 118.398 101.22 118.325 101.22 118.218V115.308C101.22 114.755 101.076 114.338 100.79 114.058C100.503 113.778 100.126 113.638 99.6597 113.638C99.153 113.638 98.7263 113.805 98.3797 114.138C98.0397 114.472 97.833 114.855 97.7597 115.288V118.218C97.7597 118.325 97.7163 118.398 97.6297 118.438C97.5497 118.478 97.4663 118.478 97.3797 118.438C97.2997 118.398 97.2597 118.325 97.2597 118.218V113.458C97.2597 113.352 97.2997 113.278 97.3797 113.238C97.4663 113.192 97.5497 113.192 97.6297 113.238C97.7163 113.278 97.7597 113.352 97.7597 113.458V114.468C97.8063 114.235 98.0097 113.958 98.3697 113.638C98.723 113.332 99.1763 113.178 99.7297 113.178C100.176 113.178 100.57 113.292 100.91 113.518C101.256 113.738 101.493 114.072 101.62 114.518C101.813 114.125 102.086 113.805 102.44 113.558C102.793 113.305 103.21 113.178 103.69 113.178ZM109.169 113.168C109.595 113.168 109.985 113.272 110.339 113.478C110.699 113.685 110.969 113.978 111.149 114.358V113.458C111.149 113.385 111.172 113.325 111.219 113.278C111.272 113.225 111.332 113.198 111.399 113.198C111.472 113.198 111.532 113.225 111.579 113.278C111.625 113.325 111.649 113.385 111.649 113.458V118.228C111.649 118.335 111.605 118.408 111.519 118.448C111.439 118.488 111.355 118.488 111.269 118.448C111.189 118.408 111.149 118.335 111.149 118.228V117.238C110.955 117.638 110.682 117.948 110.329 118.168C109.975 118.388 109.589 118.498 109.169 118.498C108.882 118.498 108.595 118.442 108.309 118.328C108.022 118.215 107.755 118.052 107.509 117.838C107.262 117.625 107.062 117.345 106.909 116.998C106.755 116.645 106.679 116.255 106.679 115.828C106.679 115.002 106.935 114.352 107.449 113.878C107.975 113.405 108.549 113.168 109.169 113.168ZM111.179 115.828C111.179 115.115 110.979 114.568 110.579 114.188C110.179 113.808 109.719 113.618 109.199 113.618C108.679 113.618 108.212 113.812 107.799 114.198C107.385 114.592 107.179 115.135 107.179 115.828C107.179 116.528 107.385 117.075 107.799 117.468C108.212 117.855 108.679 118.048 109.199 118.048C109.705 118.048 110.162 117.852 110.569 117.458C110.975 117.072 111.179 116.528 111.179 115.828ZM119.276 113.178C119.809 113.178 120.272 113.348 120.666 113.688C121.066 114.028 121.266 114.568 121.266 115.308V118.218C121.266 118.325 121.222 118.398 121.136 118.438C121.056 118.478 120.972 118.478 120.886 118.438C120.806 118.398 120.766 118.325 120.766 118.218V115.308C120.766 114.755 120.622 114.338 120.336 114.058C120.049 113.778 119.672 113.638 119.206 113.638C118.699 113.638 118.272 113.805 117.926 114.138C117.586 114.472 117.379 114.855 117.306 115.288V115.308V118.218C117.306 118.325 117.262 118.398 117.176 118.438C117.096 118.478 117.012 118.478 116.926 118.438C116.846 118.398 116.806 118.325 116.806 118.218V115.308C116.806 114.755 116.662 114.338 116.376 114.058C116.089 113.778 115.712 113.638 115.246 113.638C114.739 113.638 114.312 113.805 113.966 114.138C113.626 114.472 113.419 114.855 113.346 115.288V118.218C113.346 118.325 113.302 118.398 113.216 118.438C113.136 118.478 113.052 118.478 112.966 118.438C112.886 118.398 112.846 118.325 112.846 118.218V113.458C112.846 113.352 112.886 113.278 112.966 113.238C113.052 113.192 113.136 113.192 113.216 113.238C113.302 113.278 113.346 113.352 113.346 113.458V114.468C113.392 114.235 113.596 113.958 113.956 113.638C114.309 113.332 114.762 113.178 115.316 113.178C115.762 113.178 116.156 113.292 116.496 113.518C116.842 113.738 117.079 114.072 117.206 114.518C117.399 114.125 117.672 113.805 118.026 113.558C118.379 113.305 118.796 113.178 119.276 113.178ZM124.785 113.168C125.418 113.168 125.988 113.402 126.495 113.868C127.015 114.328 127.275 114.948 127.275 115.728C127.275 115.935 127.165 116.038 126.945 116.038H122.775C122.801 116.672 123.025 117.165 123.445 117.518C123.851 117.865 124.321 118.038 124.855 118.038C125.428 118.038 125.891 117.875 126.245 117.548C126.351 117.448 126.435 117.398 126.495 117.398C126.635 117.398 126.705 117.468 126.705 117.608C126.705 117.682 126.655 117.768 126.555 117.868C126.128 118.275 125.561 118.478 124.855 118.478C124.168 118.478 123.565 118.248 123.045 117.788C122.525 117.322 122.265 116.668 122.265 115.828C122.265 115.268 122.398 114.782 122.665 114.368C122.931 113.948 123.251 113.645 123.625 113.458C123.998 113.265 124.385 113.168 124.785 113.168ZM122.775 115.598H126.795C126.755 114.972 126.531 114.485 126.125 114.138C125.718 113.792 125.271 113.618 124.785 113.618C124.298 113.618 123.851 113.792 123.445 114.138C123.038 114.485 122.815 114.972 122.775 115.598ZM130.55 113.178C131.083 113.178 131.547 113.348 131.94 113.688C132.34 114.028 132.54 114.568 132.54 115.308V118.218C132.54 118.325 132.497 118.398 132.41 118.438C132.33 118.478 132.247 118.478 132.16 118.438C132.08 118.398 132.04 118.325 132.04 118.218V115.308C132.04 114.755 131.897 114.338 131.61 114.058C131.323 113.778 130.947 113.638 130.48 113.638C129.973 113.638 129.547 113.805 129.2 114.138C128.86 114.472 128.653 114.855 128.58 115.288V118.218C128.58 118.325 128.537 118.398 128.45 118.438C128.37 118.478 128.287 118.478 128.2 118.438C128.12 118.398 128.08 118.325 128.08 118.218V113.458C128.08 113.352 128.12 113.278 128.2 113.238C128.287 113.192 128.37 113.192 128.45 113.238C128.537 113.278 128.58 113.352 128.58 113.458V114.468C128.627 114.235 128.83 113.958 129.19 113.638C129.543 113.332 129.997 113.178 130.55 113.178ZM135.239 117.958C135.319 117.932 135.389 117.938 135.449 117.978C135.509 118.012 135.539 118.062 135.539 118.128C135.539 118.362 135.269 118.478 134.729 118.478C134.189 118.478 133.919 118.208 133.919 117.668V113.678H133.369C133.222 113.678 133.149 113.602 133.149 113.448C133.149 113.302 133.222 113.228 133.369 113.228H133.919V112.248C133.919 112.148 133.959 112.078 134.039 112.038C134.125 111.992 134.209 111.992 134.289 112.038C134.375 112.078 134.419 112.148 134.419 112.248V113.228H135.309C135.369 113.228 135.422 113.252 135.469 113.298C135.515 113.338 135.539 113.388 135.539 113.448C135.539 113.602 135.462 113.678 135.309 113.678H134.419V117.598C134.419 117.892 134.559 118.038 134.839 118.038C134.945 118.038 135.079 118.012 135.239 117.958ZM138.564 113.168C139.197 113.168 139.767 113.402 140.274 113.868C140.794 114.328 141.054 114.948 141.054 115.728C141.054 115.935 140.944 116.038 140.724 116.038H136.554C136.581 116.672 136.804 117.165 137.224 117.518C137.631 117.865 138.101 118.038 138.634 118.038C139.207 118.038 139.671 117.875 140.024 117.548C140.131 117.448 140.214 117.398 140.274 117.398C140.414 117.398 140.484 117.468 140.484 117.608C140.484 117.682 140.434 117.768 140.334 117.868C139.907 118.275 139.341 118.478 138.634 118.478C137.947 118.478 137.344 118.248 136.824 117.788C136.304 117.322 136.044 116.668 136.044 115.828C136.044 115.268 136.177 114.782 136.444 114.368C136.711 113.948 137.031 113.645 137.404 113.458C137.777 113.265 138.164 113.168 138.564 113.168ZM136.554 115.598H140.574C140.534 114.972 140.311 114.485 139.904 114.138C139.497 113.792 139.051 113.618 138.564 113.618C138.077 113.618 137.631 113.792 137.224 114.138C136.817 114.485 136.594 114.972 136.554 115.598Z" fill="white"/>
<defs>
<linearGradient id="paint0_linear" x1="168.23" y1="0.0158741" x2="0.229975" y2="168.016" gradientUnits="userSpaceOnUse">
<stop stop-color="#8414FF"/>
<stop offset="1" stop-color="#391166"/>
</linearGradient>
</defs>
</svg>
